<?xml version="1.0" standalone="no"?>
<!DOCTYPE svg PUBLIC "-//W3C//DTD SVG 20010904//EN"
 "http://www.w3.org/TR/2001/REC-SVG-20010904/DTD/svg10.dtd">
<svg version="1.0" xmlns="http://www.w3.org/2000/svg"
 width="512.000000pt" height="512.000000pt" viewBox="0 0 512.000000 512.000000"
 preserveAspectRatio="xMidYMid meet">

<g transform="translate(0.000000,512.000000) scale(0.100000,-0.100000)"
fill="#000000" stroke="none">
<path d="M1174 3617 c-2 -7 -3 -56 -2 -108 l3 -94 92 -7 c61 -5 125 -18 185
-38 93 -31 231 -106 269 -146 l20 -21 -153 -7 c-253 -12 -399 -37 -515 -91
l-53 -24 46 -94 47 -94 56 22 c119 49 341 74 657 75 116 0 134 2 157 20 37 29
50 77 37 135 -17 78 -48 126 -139 215 -154 152 -359 237 -639 265 -48 5 -63 3
-68 -8z"/>
<path d="M3865 3624 c-300 -37 -501 -126 -653 -288 -94 -101 -135 -201 -112
-272 22 -65 46 -74 194 -74 316 -1 538 -26 657 -75 l56 -22 47 95 c26 52 46
95 44 97 -2 1 -32 14 -68 28 -135 53 -259 74 -507 85 l-152 7 57 43 c123 92
274 148 432 160 l85 7 0 105 0 105 -25 1 c-14 1 -38 0 -55 -2z"/>
<path d="M1073 2233 c15 -318 137 -599 359 -829 269 -279 681 -444 1109 -444
848 -1 1462 520 1506 1278 l6 112 -146 0 -146 0 -6 -47 c-40 -309 -352 -564
-806 -661 -530 -114 -1108 15 -1404 314 -105 106 -164 218 -180 347 l-6 47
-146 0 -146 0 6 -117z"/>
</g>
</svg>
